<svg xmlns="http://www.w3.org/2000/svg" xmlns:xlink="http://www.w3.org/1999/xlink" width="512" height="512" preserveAspectRatio="xMidYMid meet" viewBox="0 0 512 512" style="-ms-transform: rotate(360deg); -webkit-transform: rotate(360deg); transform: rotate(360deg);"><rect x="336" y="336" width="80" height="80" rx="8" ry="8" fill="#626262"/><rect x="272" y="272" width="64" height="64" rx="8" ry="8" fill="#626262"/><rect x="416" y="416" width="64" height="64" rx="8" ry="8" fill="#626262"/><rect x="432" y="272" width="48" height="48" rx="8" ry="8" fill="#626262"/><rect x="272" y="432" width="48" height="48" rx="8" ry="8" fill="#626262"/><rect x="336" y="96" width="80" height="80" rx="8" ry="8" fill="#626262"/><rect x="288" y="48" width="176" height="176" rx="16" ry="16" fill="none" stroke="#626262" stroke-linecap="round" stroke-linejoin="round" stroke-width="32"/><rect x="96" y="96" width="80" height="80" rx="8" ry="8" fill="#626262"/><rect x="48" y="48" width="176" height="176" rx="16" ry="16" fill="none" stroke="#626262" stroke-linecap="round" stroke-linejoin="round" stroke-width="32"/><rect x="96" y="336" width="80" height="80" rx="8" ry="8" fill="#626262"/><rect x="48" y="288" width="176" height="176" rx="16" ry="16" fill="none" stroke="#626262" stroke-linecap="round" stroke-linejoin="round" stroke-width="32"/><rect x="0" y="0" width="512" height="512" fill="rgba(0, 0, 0, 0)" /></svg>